<svg xmlns="http://www.w3.org/2000/svg" xmlns:xlink="http://www.w3.org/1999/xlink" viewBox="0 0 362.69 266.63" width="100%"><defs><linearGradient id="linear-gradient" x1="261.62" y1="97.58" x2="273.01" y2="97.58" gradientUnits="userSpaceOnUse"><stop offset="0.01" stop-color="#056939"/><stop offset="0.03" stop-color="#056939" stop-opacity="0.94"/><stop offset="0.22" stop-color="#056939" stop-opacity="0.61"/><stop offset="0.41" stop-color="#056939" stop-opacity="0.34"/><stop offset="0.61" stop-color="#056939" stop-opacity="0.15"/><stop offset="0.8" stop-color="#056939" stop-opacity="0.04"/><stop offset="0.99" stop-color="#056939" stop-opacity="0"/></linearGradient><linearGradient id="linear-gradient-2" x1="189.4" y1="179.67" x2="189.4" y2="0" xlink:href="#linear-gradient"/><linearGradient id="linear-gradient-3" x1="236.69" y1="104.86" x2="247.51" y2="104.86" gradientUnits="userSpaceOnUse"><stop offset="0.01" stop-color="#a87d4f"/><stop offset="0.2" stop-color="#af8456" stop-opacity="0.74"/><stop offset="0.47" stop-color="#b88d5f" stop-opacity="0.42"/><stop offset="0.7" stop-color="#be9466" stop-opacity="0.19"/><stop offset="0.89" stop-color="#c2986a" stop-opacity="0.05"/><stop offset="1" stop-color="#c3996b" stop-opacity="0"/></linearGradient><linearGradient id="linear-gradient-4" x1="168.12" y1="177.95" x2="168.12" y2="17.96" gradientUnits="userSpaceOnUse"><stop offset="0.01" stop-color="#a87d4f"/><stop offset="0.08" stop-color="#ac8153" stop-opacity="0.85"/><stop offset="0.23" stop-color="#b3885a" stop-opacity="0.59"/><stop offset="0.39" stop-color="#b98e60" stop-opacity="0.38"/><stop offset="0.54" stop-color="#bd9365" stop-opacity="0.21"/><stop offset="0.69" stop-color="#c09668" stop-opacity="0.09"/><stop offset="0.84" stop-color="#c2986a" stop-opacity="0.02"/><stop offset="1" stop-color="#c3996b" stop-opacity="0"/></linearGradient><linearGradient id="linear-gradient-5" x1="205.09" y1="139.4" x2="219.59" y2="136.85" gradientTransform="translate(10.39 -48.88) rotate(6.23)" gradientUnits="userSpaceOnUse"><stop offset="0" stop-color="#4d0f11"/><stop offset="1" stop-color="#be202e" stop-opacity="0"/></linearGradient><linearGradient id="linear-gradient-6" x1="157.42" y1="200.75" x2="157.42" y2="75.19" gradientTransform="translate(10.39 -48.88) rotate(6.23)" gradientUnits="userSpaceOnUse"><stop offset="0" stop-color="#8c1812"/><stop offset="0.01" stop-color="#8f1813"/><stop offset="0.19" stop-color="#ae1c23"/><stop offset="0.37" stop-color="#c71f2f"/><stop offset="0.56" stop-color="#d82138"/><stop offset="0.76" stop-color="#e3233d"/><stop offset="1" stop-color="#e6233f"/></linearGradient><linearGradient id="linear-gradient-7" x1="252.02" y1="143.63" x2="257.3" y2="143.63" gradientUnits="userSpaceOnUse"><stop offset="0.01" stop-color="#63328a"/><stop offset="0.06" stop-color="#63328a" stop-opacity="0.86"/><stop offset="0.19" stop-color="#63328a" stop-opacity="0.6"/><stop offset="0.32" stop-color="#63328a" stop-opacity="0.38"/><stop offset="0.46" stop-color="#63328a" stop-opacity="0.21"/><stop offset="0.61" stop-color="#63328a" stop-opacity="0.09"/><stop offset="0.78" stop-color="#63328a" stop-opacity="0.02"/><stop offset="0.99" stop-color="#63328a" stop-opacity="0"/></linearGradient><linearGradient id="linear-gradient-8" x1="218.55" y1="179.3" x2="218.55" y2="101.22" gradientUnits="userSpaceOnUse"><stop offset="0.01" stop-color="#63328a"/><stop offset="0.06" stop-color="#5b3184" stop-opacity="0.86"/><stop offset="0.19" stop-color="#4c2e78" stop-opacity="0.6"/><stop offset="0.32" stop-color="#3f2c6f" stop-opacity="0.38"/><stop offset="0.47" stop-color="#352a67" stop-opacity="0.21"/><stop offset="0.62" stop-color="#2e2962" stop-opacity="0.09"/><stop offset="0.78" stop-color="#2a285f" stop-opacity="0.02"/><stop offset="1" stop-color="#29285e" stop-opacity="0"/></linearGradient><radialGradient id="radial-gradient" cx="631.11" cy="3199.02" r="22.73" gradientTransform="translate(-2577.41 -1204.42) scale(4.24 0.46)" gradientUnits="userSpaceOnUse"><stop offset="0" stop-color="#6d7072"/><stop offset="0.08" stop-color="#878a8b"/><stop offset="0.2" stop-color="#acaeaf"/><stop offset="0.34" stop-color="#cacbcc"/><stop offset="0.48" stop-color="#e1e2e2"/><stop offset="0.63" stop-color="#f2f2f2"/><stop offset="0.79" stop-color="#fcfcfc"/><stop offset="1" stop-color="#fff"/></radialGradient><radialGradient id="radial-gradient-2" cx="627.29" cy="3176.05" r="17.38" xlink:href="#radial-gradient"/><radialGradient id="radial-gradient-3" cx="660.71" cy="3199.02" r="22.73" xlink:href="#radial-gradient"/><radialGradient id="radial-gradient-4" cx="656.89" cy="3176.05" r="17.38" xlink:href="#radial-gradient"/><linearGradient id="linear-gradient-9" x1="805.45" y1="2912.58" x2="805.45" y2="2906.74" gradientTransform="matrix(0, 0.31, -0.31, 0, 1015.11, -125.96)" gradientUnits="userSpaceOnUse"><stop offset="0.02" stop-color="#6e6f72"/><stop offset="0.09" stop-color="#8d8e90"/><stop offset="0.25" stop-color="#dcdcdd"/><stop offset="0.32" stop-color="#fff"/><stop offset="0.38" stop-color="#fafafa"/><stop offset="0.44" stop-color="#ebeced"/><stop offset="0.52" stop-color="#d3d4d6"/><stop offset="0.52" stop-color="#d1d2d4"/><stop offset="0.79" stop-color="#9c9da0"/><stop offset="1" stop-color="#6e6f72"/></linearGradient><linearGradient id="linear-gradient-10" x1="763.5" y1="2986.23" x2="763.5" y2="2980.4" gradientTransform="matrix(0, 0.3, -0.31, 0, 1015.27, -108.76)" xlink:href="#linear-gradient-9"/><linearGradient id="linear-gradient-11" x1="1171.41" y1="2718.47" x2="1171.41" y2="2712.61" gradientTransform="matrix(-0.36, 0, 0, -0.31, 586.84, 965.99)" xlink:href="#linear-gradient-9"/><linearGradient id="linear-gradient-12" x1="936.47" y1="2845.25" x2="936.47" y2="2839.4" gradientTransform="matrix(0, 0.36, -0.31, 0, 1020.28, -222.82)" xlink:href="#linear-gradient-9"/><linearGradient id="linear-gradient-13" x1="1252" y1="2611.1" x2="1252" y2="2605.26" gradientTransform="matrix(-0.4, 0, 0, -0.31, 693.48, 930.32)" xlink:href="#linear-gradient-9"/><linearGradient id="linear-gradient-14" x1="1413.76" y1="2442.36" x2="1413.76" y2="2436.5" gradientTransform="matrix(-0.46, 0, 0, -0.31, 871.76, 877.8)" xlink:href="#linear-gradient-9"/><linearGradient id="linear-gradient-15" x1="1382.34" y1="2313.77" x2="1382.34" y2="2307.92" gradientTransform="matrix(-0.11, 0.48, -0.3, -0.07, 1114.58, -378.59)" xlink:href="#linear-gradient-9"/><linearGradient id="linear-gradient-16" x1="-113.12" y1="410.63" x2="-113.12" y2="404.8" gradientTransform="matrix(0, 0.75, -0.45, 0, 358.36, 248.6)" xlink:href="#linear-gradient-9"/><linearGradient id="linear-gradient-17" x1="81.75" y1="-55.33" x2="81.75" y2="-61.17" gradientTransform="matrix(0.92, 0, 0, 0.45, 112, 130.24)" xlink:href="#linear-gradient-9"/><linearGradient id="linear-gradient-18" x1="-51.93" y1="241.66" x2="-51.93" y2="235.82" gradientTransform="matrix(0, 0.81, -0.44, 0, 283.32, 185.87)" xlink:href="#linear-gradient-9"/><linearGradient id="linear-gradient-19" x1="171.21" y1="-165.43" x2="171.21" y2="-171.27" gradientTransform="matrix(1.01, 0, 0, 0.54, 20.59, 161.13)" xlink:href="#linear-gradient-9"/><linearGradient id="linear-gradient-20" x1="117.89" y1="212.87" x2="89.38" y2="222.2" gradientUnits="userSpaceOnUse"><stop offset="0" stop-color="#626263"/><stop offset="0.34" stop-color="#e2e2e2"/><stop offset="0.61" stop-color="#fff"/><stop offset="0.66" stop-color="#f9f9f9"/><stop offset="0.72" stop-color="#e7e7e7"/><stop offset="0.8" stop-color="#c9c9ca"/><stop offset="0.89" stop-color="#a0a0a1"/><stop offset="0.98" stop-color="#6c6c6d"/><stop offset="1" stop-color="#626263"/></linearGradient><linearGradient id="linear-gradient-21" x1="93.02" y1="212.28" x2="98.07" y2="218.8" xlink:href="#linear-gradient-20"/><linearGradient id="linear-gradient-22" x1="98.42" y1="-26.38" x2="98.42" y2="-32.22" gradientTransform="matrix(0.93, 0, 0, 0.67, 97.08, 114.51)" xlink:href="#linear-gradient-9"/><linearGradient id="linear-gradient-23" x1="-42.46" y1="172.27" x2="-42.46" y2="166.42" gradientTransform="matrix(0, 0.81, -0.75, 0, 306.67, 170.11)" xlink:href="#linear-gradient-9"/><linearGradient id="linear-gradient-24" x1="78.76" y1="222.77" x2="99.83" y2="243.83" gradientUnits="userSpaceOnUse"><stop offset="0" stop-color="#0b0c0e"/><stop offset="0.41" stop-color="#525355"/><stop offset="0.61" stop-color="#525355"/><stop offset="0.79" stop-color="#333436"/><stop offset="1" stop-color="#0b0c0e"/></linearGradient><linearGradient id="linear-gradient-25" x1="83.19" y1="227.19" x2="95.41" y2="239.41" gradientUnits="userSpaceOnUse"><stop offset="0" stop-color="#626263"/><stop offset="0.46" stop-color="#e2e2e2"/><stop offset="0.74" stop-color="#fff"/><stop offset="1" stop-color="#626263"/></linearGradient><linearGradient id="linear-gradient-26" x1="85.79" y1="229.79" x2="92.81" y2="236.81" xlink:href="#linear-gradient-24"/><linearGradient id="linear-gradient-27" x1="89.3" y1="247.87" x2="89.3" y2="216.51" gradientUnits="userSpaceOnUse"><stop offset="0" stop-color="#010101"/><stop offset="1" stop-color="#c6e5e9"/></linearGradient><linearGradient id="linear-gradient-28" x1="84.42" y1="227.43" x2="108.93" y2="251.94" xlink:href="#linear-gradient-24"/><linearGradient id="linear-gradient-29" x1="89.56" y1="232.58" x2="103.78" y2="246.8" xlink:href="#linear-gradient-25"/><linearGradient id="linear-gradient-30" x1="92.59" y1="235.6" x2="100.76" y2="243.77" xlink:href="#linear-gradient-24"/><linearGradient id="linear-gradient-31" x1="96.67" y1="256.63" x2="96.67" y2="220.15" xlink:href="#linear-gradient-27"/><linearGradient id="linear-gradient-32" x1="204.18" y1="222.77" x2="225.25" y2="243.83" xlink:href="#linear-gradient-24"/><linearGradient id="linear-gradient-33" x1="208.6" y1="227.19" x2="220.83" y2="239.41" xlink:href="#linear-gradient-25"/><linearGradient id="linear-gradient-34" x1="211.2" y1="229.79" x2="218.22" y2="236.81" xlink:href="#linear-gradient-24"/><linearGradient id="linear-gradient-35" x1="214.71" y1="247.87" x2="214.71" y2="216.51" xlink:href="#linear-gradient-27"/><linearGradient id="linear-gradient-36" x1="242.56" y1="212.87" x2="214.05" y2="222.2" xlink:href="#linear-gradient-20"/><linearGradient id="linear-gradient-37" x1="217.69" y1="212.28" x2="222.74" y2="218.8" xlink:href="#linear-gradient-20"/><linearGradient id="linear-gradient-38" x1="209.83" y1="227.43" x2="234.34" y2="251.94" xlink:href="#linear-gradient-24"/><linearGradient id="linear-gradient-39" x1="214.97" y1="232.58" x2="229.2" y2="246.8" xlink:href="#linear-gradient-25"/><linearGradient id="linear-gradient-40" x1="218" y1="235.6" x2="226.17" y2="243.77" xlink:href="#linear-gradient-24"/><linearGradient id="linear-gradient-41" x1="222.08" y1="256.63" x2="222.08" y2="220.15" xlink:href="#linear-gradient-27"/><linearGradient id="linear-gradient-42" x1="264.65" y1="330.1" x2="270.36" y2="330.1" gradientTransform="matrix(0, 1, -1, 0, 591.3, -67.79)" gradientUnits="userSpaceOnUse"><stop offset="0.02" stop-color="#6e6f72"/><stop offset="0.13" stop-color="#8d8e90"/><stop offset="0.37" stop-color="#dcdcdd"/><stop offset="0.48" stop-color="#fff"/><stop offset="0.54" stop-color="#fafafa"/><stop offset="0.61" stop-color="#ebeced"/><stop offset="0.69" stop-color="#d3d4d6"/><stop offset="0.7" stop-color="#d1d2d4"/><stop offset="0.86" stop-color="#9c9da0"/><stop offset="1" stop-color="#6e6f72"/></linearGradient><linearGradient id="linear-gradient-43" x1="860.23" y1="1745.52" x2="860.23" y2="1739.67" gradientTransform="matrix(0, 0.35, -0.53, 0, 1047.29, -186.34)" xlink:href="#linear-gradient-9"/><linearGradient id="linear-gradient-44" x1="778.5" y1="1794.45" x2="778.5" y2="1788.61" gradientTransform="matrix(0, 0.35, -0.53, 0, 1049.5, -151.44)" xlink:href="#linear-gradient-9"/><linearGradient id="linear-gradient-45" x1="1202.49" y1="1857.95" x2="1202.49" y2="1852.1" gradientTransform="matrix(-0.4, 0, 0, -0.47, 649.7, 988.6)" xlink:href="#linear-gradient-9"/><linearGradient id="linear-gradient-46" x1="994.83" y1="1948.21" x2="994.83" y2="1942.36" gradientTransform="matrix(0, 0.4, -0.47, 0, 1056.59, -279.27)" xlink:href="#linear-gradient-9"/><linearGradient id="linear-gradient-47" x1="1265.89" y1="1510.12" x2="1265.89" y2="1504.28" gradientTransform="matrix(-0.46, 0, 0, -0.57, 786.15, 966.8)" xlink:href="#linear-gradient-9"/><linearGradient id="linear-gradient-48" x1="1438.49" y1="1674.01" x2="1438.49" y2="1668.17" gradientTransform="matrix(-0.51, 0, 0, -0.48, 970.34, 917.95)" xlink:href="#linear-gradient-9"/><linearGradient id="linear-gradient-49" x1="1393.67" y1="1603.03" x2="1393.67" y2="1597.19" gradientTransform="matrix(-0.54, 0, 0, -0.48, 1023.24, 884.44)" xlink:href="#linear-gradient-9"/><linearGradient id="linear-gradient-50" x1="191.08" y1="-66.36" x2="191.08" y2="-72.2" gradientTransform="matrix(1.03, 0, 0, 1, -3.6, 130.3)" xlink:href="#linear-gradient-9"/><linearGradient id="linear-gradient-51" x1="-120.22" y1="291.47" x2="-120.22" y2="285.63" gradientTransform="matrix(0, 0.75, -0.73, 0, 383.7, 259.62)" xlink:href="#linear-gradient-9"/><linearGradient id="linear-gradient-52" x1="556.79" y1="1005.04" x2="556.79" y2="999.2" gradientTransform="matrix(0, 0.34, -1, 0, 1077.02, -70.37)" xlink:href="#linear-gradient-9"/><linearGradient id="linear-gradient-53" x1="294.11" y1="216.5" x2="294.11" y2="211.93" gradientTransform="matrix(1.2, 0, 0, 1.41, -189, -89.64)" xlink:href="#linear-gradient-9"/><linearGradient id="linear-gradient-54" x1="1411.57" y1="751.61" x2="1411.57" y2="745.77" gradientTransform="matrix(-0.69, 0, 0, -1, 1266.49, 856.92)" xlink:href="#linear-gradient-9"/><linearGradient id="linear-gradient-55" x1="372.27" y1="-106.23" x2="372.27" y2="-112.71" gradientTransform="matrix(1, 0, 0, 1.4, -35.66, 181.26)" gradientUnits="userSpaceOnUse"><stop offset="0.02" stop-color="#6e6f72"/><stop offset="0.17" stop-color="#8d8e90"/><stop offset="0.5" stop-color="#dcdcdd"/><stop offset="0.64" stop-color="#fff"/><stop offset="0.68" stop-color="#fafafa"/><stop offset="0.72" stop-color="#ebeced"/><stop offset="0.76" stop-color="#d3d4d6"/><stop offset="0.77" stop-color="#d1d2d4"/><stop offset="0.9" stop-color="#9c9da0"/><stop offset="1" stop-color="#6e6f72"/></linearGradient><linearGradient id="linear-gradient-56" x1="374.76" y1="-138.21" x2="374.76" y2="-149.02" gradientTransform="translate(16.04 248.15) rotate(-12.85)" xlink:href="#linear-gradient-24"/><linearGradient id="linear-gradient-57" x1="-237.8" y1="256.23" x2="-237.8" y2="251.66" gradientTransform="matrix(0.65, 0.07, -0.14, 1.24, 405.56, -113.79)" xlink:href="#linear-gradient-9"/></defs><title>Ресурс 1</title><g style="isolation:isolate"><g id="Слой_2" data-name="Слой 2"><g id="layer"><g id="pack_1"><path d="M261.77,19.35,270,15.46s1.77,96.15,3,149.88c-5.2,6.74-9,11.53-11.27,14.37C261.45,124.25,261.77,19.35,261.77,19.35Z" style="fill:#5caa83"/><path d="M261.77,19.35,270,15.46s1.77,96.15,3,149.88c-5.2,6.74-9,11.53-11.27,14.37C261.45,124.25,261.77,19.35,261.77,19.35Z" style="opacity:0.6000000000000001;mix-blend-mode:multiply;fill:url(#linear-gradient)"/><path d="M261.9,13.31Q206.75,8.7,152.06,0q-17.14,81.15-35.15,162,72.1,12.18,144.92,17.62Q261.45,96.51,261.9,13.31Zm-78.71-.44c-1.32-.15-2.25-1.64-2.07-3.32s1.38-2.92,2.7-2.77,2.25,1.64,2.08,3.32S184.5,13,183.19,12.87Zm45.42,5.29c-1.32-.15-2.24-1.64-2.07-3.32s1.38-2.92,2.7-2.76,2.25,1.64,2.08,3.32S229.92,18.31,228.6,18.16Z" style="fill:#78c29b"/><path d="M261.9,13.31Q206.75,8.7,152.06,0q-17.14,81.15-35.15,162,72.1,12.18,144.92,17.62Q261.45,96.51,261.9,13.31Zm-78.71-.44c-1.32-.15-2.25-1.64-2.07-3.32s1.38-2.92,2.7-2.77,2.25,1.64,2.08,3.32S184.5,13,183.19,12.87Zm45.42,5.29c-1.32-.15-2.24-1.64-2.07-3.32s1.38-2.92,2.7-2.76,2.25,1.64,2.08,3.32S229.92,18.31,228.6,18.16Z" style="opacity:0.6000000000000001;mix-blend-mode:multiply;fill:url(#linear-gradient-2)"/><path d="M228.17,18.36c0,.18,0,.36-.06.54-1.06,8.36-9.67,19.29-24.55,17.52S182.62,22,183.38,13.58c0-.18,0-.29.07-.47l-.47,0c0,.18,0,.26,0,.44-.77,8.56,5.41,21.49,20.58,23.29s24-9.33,25-17.86c0-.18,0-.36.05-.54Z" style="fill:none;stroke:#4d9a73;stroke-miterlimit:10;stroke-width:0.9930319999999999px"/></g><g id="pack_2"><path d="M236.83,35.19l7.85-3.46s1.68,85.62,2.83,133.46c-4.93,6-8.59,10.27-10.7,12.79C236.53,128.6,236.83,35.19,236.83,35.19Z" style="fill:#c79b71"/><path d="M236.83,35.19l7.85-3.46s1.68,85.62,2.83,133.46c-4.93,6-8.59,10.27-10.7,12.79C236.53,128.6,236.83,35.19,236.83,35.19Z" style="opacity:0.6000000000000001;mix-blend-mode:multiply;fill:url(#linear-gradient-3)"/><path d="M237,29.81Q184.6,25.71,132.67,18,116.4,90.22,99.29,162.26q68.46,10.84,137.6,15.69Q236.53,103.9,237,29.81Zm-74.73-.39a2.53,2.53,0,0,1-2-3,2.32,2.32,0,1,1,4.53.5A2.53,2.53,0,0,1,162.22,29.42Zm43.12,4.71a2.54,2.54,0,0,1-2-3,2.32,2.32,0,1,1,4.53.5A2.53,2.53,0,0,1,205.34,34.13Z" style="fill:#fccc82"/><path d="M237,29.81Q184.6,25.71,132.67,18,116.4,90.22,99.29,162.26q68.46,10.84,137.6,15.69Q236.53,103.9,237,29.81Zm-74.73-.39a2.53,2.53,0,0,1-2-3,2.32,2.32,0,1,1,4.53.5A2.53,2.53,0,0,1,162.22,29.42Zm43.12,4.71a2.54,2.54,0,0,1-2-3,2.32,2.32,0,1,1,4.53.5A2.53,2.53,0,0,1,205.34,34.13Z" style="opacity:0.6000000000000001;mix-blend-mode:multiply;fill:url(#linear-gradient-4)"/><path d="M204.94,34.31c0,.16,0,.32-.05.48-1,7.44-9.18,17.18-23.32,15.6S161.68,37.53,162.4,30.05c0-.16,0-.26.06-.42l-.45,0c0,.16,0,.23,0,.39-.73,7.62,5.13,19.13,19.54,20.74s22.75-8.31,23.78-15.91c0-.16,0-.32.05-.48Z" style="fill:none;stroke:#c79b71;stroke-miterlimit:10;stroke-width:0.913095px"/></g><g id="pack_3"><path d="M203.17,52.76l6.62-2.92s1.42,72.18,2.38,112.52c-4.16,5.06-7.24,8.66-9,10.79C202.91,131.51,203.17,52.76,203.17,52.76Z" style="fill:#ea5151"/><path d="M203.17,52.76l6.62-2.92s1.42,72.18,2.38,112.52c-4.16,5.06-7.24,8.66-9,10.79C202.91,131.51,203.17,52.76,203.17,52.76Z" style="opacity:0.8;mix-blend-mode:multiply;fill:url(#linear-gradient-5)"/><path d="M203.27,48.22q-44.14-3.46-87.92-10Q101.63,99.15,87.21,159.89q57.72,9.14,116,13.23Q202.91,110.68,203.27,48.22Zm-63-.33a2.34,2.34,0,1,1,2.16-2.08A2.14,2.14,0,0,1,140.26,47.89Zm36.36,4a2.34,2.34,0,1,1,2.16-2.08A2.14,2.14,0,0,1,176.62,51.86Z" style="fill:#ec6667"/><path d="M203.27,48.22q-44.14-3.46-87.92-10Q101.63,99.15,87.21,159.89q57.72,9.14,116,13.23Q202.91,110.68,203.27,48.22Zm-63-.33a2.34,2.34,0,1,1,2.16-2.08A2.14,2.14,0,0,1,140.26,47.89Zm36.36,4a2.34,2.34,0,1,1,2.16-2.08A2.14,2.14,0,0,1,176.62,51.86Z" style="opacity:0.6000000000000001;fill:url(#linear-gradient-6)"/><path d="M176.28,52c0,.13,0,.27,0,.4-.85,6.27-7.74,14.48-19.66,13.15s-16.77-10.84-16.16-17.15c0-.13,0-.22.05-.35h-.38c0,.13,0,.19,0,.33-.61,6.43,4.33,16.13,16.48,17.49s19.18-7,20-13.41c0-.13,0-.27,0-.4Z" style="fill:none;stroke:#e03432;stroke-miterlimit:10;stroke-width:0.769848px"/></g><g id="pack_4"><path d="M252.09,109.63l3.83-1.69s.82,41.79,1.38,65.14c-2.41,2.93-4.19,5-5.22,6.25C251.94,155.22,252.09,109.63,252.09,109.63Z" style="fill:#69598e"/><path d="M252.09,109.63l3.83-1.69s.82,41.79,1.38,65.14c-2.41,2.93-4.19,5-5.22,6.25C251.94,155.22,252.09,109.63,252.09,109.63Z" style="opacity:0.6000000000000001;mix-blend-mode:multiply;fill:url(#linear-gradient-7)"/><path d="M252.15,107q-25.55-2-50.9-5.79Q193.3,136.49,185,171.65q33.41,5.29,67.16,7.66Q251.94,143.16,252.15,107Zm-36.48-.19a1.35,1.35,0,1,1,1.25-1.2A1.24,1.24,0,0,1,215.67,106.81Zm21,2.3a1.35,1.35,0,1,1,1.25-1.2A1.24,1.24,0,0,1,236.72,109.11Z" style="fill:#7c709a"/><path d="M252.15,107q-25.55-2-50.9-5.79Q193.3,136.49,185,171.65q33.41,5.29,67.16,7.66Q251.94,143.16,252.15,107Zm-36.48-.19a1.35,1.35,0,1,1,1.25-1.2A1.24,1.24,0,0,1,215.67,106.81Zm21,2.3a1.35,1.35,0,1,1,1.25-1.2A1.24,1.24,0,0,1,236.72,109.11Z" style="opacity:0.6000000000000001;mix-blend-mode:multiply;fill:url(#linear-gradient-8)"/><path d="M236.52,109.2c0,.08,0,.16,0,.23-.49,3.63-4.48,8.38-11.38,7.62s-9.71-6.28-9.36-9.93c0-.08,0-.12,0-.2h-.22c0,.08,0,.11,0,.19-.35,3.72,2.5,9.34,9.54,10.13s11.11-4.06,11.6-7.76c0-.08,0-.16,0-.23Z" style="fill:none;stroke:#483965;stroke-miterlimit:10;stroke-width:0.44567199999999996px"/></g><g id="cart"><ellipse cx="96.28" cy="256.25" rx="96.28" ry="10.38" style="opacity:0.6000000000000001;mix-blend-mode:multiply;fill:url(#radial-gradient)"/><ellipse cx="80.1" cy="245.76" rx="73.62" ry="7.93" style="opacity:0.6000000000000001;mix-blend-mode:multiply;fill:url(#radial-gradient-2)"/><ellipse cx="221.7" cy="256.25" rx="96.28" ry="10.38" style="opacity:0.6000000000000001;mix-blend-mode:multiply;fill:url(#radial-gradient-3)"/><ellipse cx="205.51" cy="245.76" rx="73.62" ry="7.93" style="opacity:0.6000000000000001;mix-blend-mode:multiply;fill:url(#radial-gradient-4)"/><rect x="109.06" y="83.23" width="1.81" height="77.58" transform="translate(-10.63 10.5) rotate(-5.21)" style="fill:url(#linear-gradient-9)"/><rect x="86.08" y="84.45" width="1.81" height="76.36" transform="translate(-12.54 9.94) rotate(-6.1)" style="fill:url(#linear-gradient-10)"/><rect x="114.53" y="120.13" width="91.76" height="1.81" transform="translate(31.05 274.82) rotate(-86.97)" style="fill:url(#linear-gradient-11)"/><rect x="135" y="72.41" width="1.81" height="91.76" transform="translate(-5.46 6.58) rotate(-2.72)" style="fill:url(#linear-gradient-12)"/><rect x="140.58" y="118.08" width="101.16" height="1.81" transform="translate(53.63 297.27) rotate(-84.25)" style="fill:url(#linear-gradient-13)"/><rect x="167.98" y="117.98" width="115.19" height="1.81" transform="translate(62.1 314.57) rotate(-77.92)" style="fill:url(#linear-gradient-14)"/><polygon points="245.78 177.85 273.81 57.58 275.58 57.99 247.55 178.26 245.78 177.85" style="fill:url(#linear-gradient-15)"/><rect x="173.43" y="68.75" width="2.63" height="189.54" transform="translate(-7.39 318.76) rotate(-83.54)" style="fill:url(#linear-gradient-16)"/><rect x="71.28" y="102.73" width="231.81" height="2.62" transform="translate(-8.99 18.15) rotate(-5.42)" style="fill:url(#linear-gradient-17)"/><rect x="177.33" y="42.51" width="2.56" height="203.04" transform="translate(29.07 318.06) rotate(-88.21)" style="fill:url(#linear-gradient-18)"/><rect x="66.12" y="68" width="253.94" height="3.17" transform="translate(-8.14 29.17) rotate(-8.46)" style="fill:url(#linear-gradient-19)"/><path d="M87.25,213.54c0,.48-.06,1-.06,1.45,0,7.52,4.48,13.62,10,13.62s10-6.1,10-13.62c0-.49,0-1-.06-1.45Z" style="fill:url(#linear-gradient-20)"/><circle cx="97.3" cy="217.81" r="1.52" style="fill:url(#linear-gradient-21)"/><rect x="71.27" y="92.86" width="235.66" height="3.92" transform="translate(-8.11 18.29) rotate(-5.42)" style="fill:url(#linear-gradient-22)"/><rect x="177.37" y="33.11" width="4.38" height="204.95" transform="translate(38.45 310.83) rotate(-88.21)" style="fill:url(#linear-gradient-23)"/><circle cx="89.3" cy="233.3" r="14.9" style="fill:url(#linear-gradient-24)"/><circle cx="89.3" cy="233.3" r="8.64" style="fill:url(#linear-gradient-25)"/><circle cx="89.3" cy="233.3" r="4.97" style="fill:url(#linear-gradient-26)"/><path d="M89.3,220.43c7.76,0,14.07,5.8,14.48,13.09,0-.24,0-.49,0-.74,0-7.64-6.5-13.83-14.52-13.83s-14.52,6.19-14.52,13.83c0,.25,0,.5,0,.74C75.23,226.23,81.54,220.43,89.3,220.43Z" style="opacity:0.30000000000000004;mix-blend-mode:screen;fill:url(#linear-gradient-27)"/><circle cx="96.67" cy="239.69" r="17.33" style="fill:url(#linear-gradient-28)"/><circle cx="96.67" cy="239.69" r="10.06" style="fill:url(#linear-gradient-29)"/><circle cx="96.67" cy="239.69" r="5.78" style="fill:url(#linear-gradient-30)"/><path d="M96.67,224.72c9,0,16.37,6.74,16.84,15.22,0-.29,0-.57,0-.86,0-8.88-7.56-16.09-16.89-16.09s-16.89,7.2-16.89,16.09c0,.29,0,.57,0,.86C80.3,231.46,87.65,224.72,96.67,224.72Z" style="opacity:0.30000000000000004;mix-blend-mode:screen;fill:url(#linear-gradient-31)"/><circle cx="214.71" cy="233.3" r="14.9" style="fill:url(#linear-gradient-32)"/><circle cx="214.71" cy="233.3" r="8.65" style="fill:url(#linear-gradient-33)"/><circle cx="214.71" cy="233.3" r="4.97" style="fill:url(#linear-gradient-34)"/><path d="M214.71,220.43c7.76,0,14.07,5.8,14.48,13.09,0-.24,0-.49,0-.74,0-7.64-6.5-13.83-14.52-13.83s-14.52,6.19-14.52,13.83c0,.25,0,.5,0,.74C200.64,226.23,207,220.43,214.71,220.43Z" style="opacity:0.30000000000000004;mix-blend-mode:screen;fill:url(#linear-gradient-35)"/><path d="M211.92,213.54c0,.48-.06,1-.06,1.45,0,7.52,4.48,13.62,10,13.62s10-6.1,10-13.62c0-.49,0-1-.06-1.45Z" style="fill:url(#linear-gradient-36)"/><circle cx="221.97" cy="217.81" r="1.52" style="fill:url(#linear-gradient-37)"/><circle cx="222.09" cy="239.69" r="17.33" style="fill:url(#linear-gradient-38)"/><circle cx="222.09" cy="239.69" r="10.06" style="fill:url(#linear-gradient-39)"/><circle cx="222.09" cy="239.69" r="5.78" style="fill:url(#linear-gradient-40)"/><path d="M222.09,224.72c9,0,16.37,6.74,16.84,15.22,0-.29,0-.57,0-.86,0-8.88-7.56-16.09-16.89-16.09s-16.89,7.2-16.89,16.09c0,.29,0,.57,0,.86C205.71,231.46,213.06,224.72,222.09,224.72Z" style="opacity:0.30000000000000004;mix-blend-mode:screen;fill:url(#linear-gradient-41)"/><rect x="246.55" y="196.79" width="26.77" height="5.7" transform="translate(21.98 425.04) rotate(-80.97)" style="fill:url(#linear-gradient-42)"/><rect x="115.87" y="73.2" width="3.11" height="89.06" transform="translate(-8.55 9.2) rotate(-4.33)" style="fill:url(#linear-gradient-43)"/><rect x="91.97" y="74.85" width="3.11" height="87.41" transform="translate(-12.59 11.12) rotate(-6.38)" style="fill:url(#linear-gradient-44)"/><rect x="116.9" y="115.15" width="101.07" height="2.74" transform="translate(38.19 274.34) rotate(-85.52)" style="fill:url(#linear-gradient-45)"/><rect x="140.78" y="66.48" width="2.74" height="100.32" transform="translate(-3.04 3.8) rotate(-1.52)" style="fill:url(#linear-gradient-46)"/><rect x="143.92" y="113.23" width="116.29" height="3.3" transform="translate(62.58 300.81) rotate(-82.74)" style="fill:url(#linear-gradient-47)"/><rect x="171.98" y="112.08" width="128.62" height="2.81" transform="translate(67.87 314.35) rotate(-75.67)" style="fill:url(#linear-gradient-48)"/><rect x="203.87" y="112.81" width="135.9" height="2.81" transform="translate(93.9 349.32) rotate(-75.67)" style="fill:url(#linear-gradient-49)"/><rect x="63.56" y="58.1" width="260.16" height="5.83" transform="matrix(0.99, -0.15, 0.15, 0.99, -6.87, 29.16)" style="fill:url(#linear-gradient-50)"/><rect x="171.98" y="75.62" width="4.23" height="188.34" transform="translate(-14.21 323.68) rotate(-83.54)" style="fill:url(#linear-gradient-51)"/><rect x="71.96" y="76.07" width="5.83" height="85.69" transform="translate(-20.58 15.79) rotate(-10.59)" style="fill:url(#linear-gradient-52)"/><path d="M262.94,211.44c0,1.77-1.12,3.21-2.52,3.21l-189.84.08c-1.39,0-2.51-1.43-2.52-3.2h0c0-1.77,1.13-3.21,2.51-3.21l189.84-.08c1.39,0,2.52,1.43,2.52,3.21Z" style="fill:url(#linear-gradient-53)"/><rect x="208.85" y="105.21" width="173.37" height="5.83" transform="translate(83.99 341.11) rotate(-67.86)" style="fill:url(#linear-gradient-54)"/><rect x="326.41" y="23.85" width="20.4" height="9.05" transform="translate(4.77 91.59) rotate(-15.6)" style="fill:url(#linear-gradient-55)"/><path d="M362.55,21.79a5.41,5.41,0,0,1-4.07,6.47L342.9,31.82a5.4,5.4,0,0,1-6.47-4.07h0a5.4,5.4,0,0,1,4.07-6.47l15.58-3.55a5.41,5.41,0,0,1,6.47,4.07Z" style="fill:url(#linear-gradient-56)"/><path d="M266.86,189.46c-.18,1.56-.93,2.76-1.68,2.67l-102.3-11.77c-.75-.09-1.21-1.42-1-3h0c.18-1.56.93-2.76,1.68-2.67l102.3,11.77c.75.09,1.21,1.42,1,3Z" style="fill:url(#linear-gradient-57)"/></g></g></g></g></svg>